<svg width="43" height="42" viewBox="0 0 43 42" fill="none" xmlns="http://www.w3.org/2000/svg">
<g clip-path="url(#clip0_13_112)">
<path fill-rule="evenodd" clip-rule="evenodd" d="M3.80109 19.1484L15.3661 27.1556L10.4611 32.0738C10.3273 32.2019 10.2203 32.3554 10.1465 32.5253C10.0726 32.6952 10.0334 32.8781 10.0311 33.0633C10.0287 33.2485 10.0633 33.4323 10.1328 33.604C10.2023 33.7757 10.3053 33.9318 10.4358 34.0633C10.5663 34.1948 10.7217 34.2989 10.8929 34.3697C11.0642 34.4405 11.2478 34.4764 11.4331 34.4755C11.6184 34.4745 11.8016 34.4367 11.9721 34.3642C12.1426 34.2917 12.2969 34.1859 12.4261 34.0531L17.7061 28.775L21.2011 31.2041C21.4346 31.366 21.712 31.4528 21.9961 31.4528C22.2802 31.4528 22.5576 31.366 22.7911 31.2041L26.2861 28.775L31.5511 34.0531C31.6811 34.1831 31.8354 34.2862 32.0053 34.3565C32.1752 34.4268 32.3572 34.4631 32.5411 34.4631C32.725 34.4631 32.907 34.4268 33.0769 34.3565C33.2467 34.2862 33.4011 34.1831 33.5311 34.0531C33.6611 33.9232 33.7642 33.7689 33.8346 33.5991C33.905 33.4293 33.9412 33.2473 33.9412 33.0635C33.9412 32.8797 33.905 32.6977 33.8346 32.5279C33.7642 32.3581 33.6611 32.2038 33.5311 32.0738L28.6261 27.1556L40.1911 19.1484V34.5629C40.1951 35.1712 40.0784 35.7743 39.8478 36.3373C39.6172 36.9002 39.2773 37.4119 38.8477 37.8427C38.4181 38.2736 37.9073 38.615 37.3449 38.8474C36.7825 39.0797 36.1796 39.1983 35.5711 39.1963H8.49609C7.88756 39.1983 7.28467 39.0797 6.72227 38.8474C6.15986 38.615 5.6491 38.2736 5.2195 37.8427C4.7899 37.4119 4.44998 36.9002 4.21939 36.3373C3.98881 35.7743 3.87213 35.1712 3.87609 34.5629L3.80109 19.1484ZM14.4961 15.0849C14.1491 15.1208 13.8278 15.284 13.5942 15.543C13.3606 15.8019 13.2313 16.1382 13.2313 16.4869C13.2313 16.8356 13.3606 17.1719 13.5942 17.4308C13.8278 17.6898 14.1491 17.853 14.4961 17.8889H29.4961C29.6925 17.9092 29.8909 17.8881 30.0786 17.8269C30.2663 17.7657 30.439 17.6658 30.5856 17.5336C30.7322 17.4015 30.8494 17.24 30.9296 17.0597C31.0099 16.8794 31.0513 16.6842 31.0513 16.4869C31.0513 16.2896 31.0099 16.0944 30.9296 15.9141C30.8494 15.7338 30.7322 15.5723 30.5856 15.4402C30.439 15.308 30.2663 15.2081 30.0786 15.1469C29.8909 15.0857 29.6925 15.0646 29.4961 15.0849H14.4961ZM35.4961 14.4401L39.0361 16.5694L35.4961 19.0285V14.4401ZM8.49609 14.4401V18.9385L4.98609 16.5694L8.49609 14.4401ZM14.3161 7.49761C13.9382 7.52147 13.5852 7.69443 13.3348 7.97845C13.0845 8.26247 12.9572 8.63427 12.9811 9.01207C13.005 9.38987 13.178 9.74271 13.4621 9.99298C13.7462 10.2433 14.1182 10.3705 14.4961 10.3466H21.9961C22.374 10.3466 22.7365 10.1965 23.0037 9.92937C23.271 9.66222 23.4211 9.2999 23.4211 8.9221C23.4211 8.5443 23.271 8.18198 23.0037 7.91483C22.7365 7.64769 22.374 7.49761 21.9961 7.49761H14.3161ZM27.9061 5.23342L31.0711 8.99707H27.9061V5.23342ZM12.9961 2.80428H25.1611V10.4965C25.1611 10.8704 25.3096 11.2289 25.5741 11.4932C25.8385 11.7575 26.1971 11.906 26.5711 11.906H32.7061V20.9928L21.9961 28.3402L11.3311 20.9928V4.49868C11.33 4.28618 11.372 4.07566 11.4545 3.87981C11.537 3.68396 11.6583 3.50682 11.8111 3.35909C11.9539 3.18313 12.1346 3.0418 12.3399 2.94571C12.5451 2.84961 12.7695 2.80126 12.9961 2.80428ZM26.4961 0.00028539H12.9961C11.8026 0.00028539 10.658 0.474222 9.81411 1.31783C8.9702 2.16145 8.49609 3.30563 8.49609 4.49868V11.2463L1.76109 15.2948C1.53862 15.409 1.35053 15.5803 1.21609 15.7911C1.08166 16.0019 1.00574 16.2446 0.996094 16.4944V34.5629C1.01586 36.5383 1.81475 38.4261 3.21913 39.8159C4.62352 41.2058 6.5199 41.9854 8.49609 41.9853H35.6461C37.5962 41.9464 39.4544 41.1496 40.8266 39.7639C42.1988 38.3782 42.977 36.5126 42.9961 34.5629V16.4944C42.9946 16.2254 42.9161 15.9625 42.7699 15.7366C42.6237 15.5108 42.4159 15.3315 42.1711 15.2198L35.4961 11.1713V10.8564C35.5539 10.6299 35.5525 10.3924 35.4921 10.1666C35.4317 9.94078 35.3143 9.73428 35.1511 9.56687L27.6511 0.570082C27.5213 0.386437 27.3477 0.238122 27.146 0.138613C26.9442 0.0391042 26.7209 -0.00844529 26.4961 0.00028539Z" fill="#40189D"/>
</g>
<defs>
<clipPath id="clip0_13_112">
<rect width="42" height="42" fill="white" transform="translate(0.996094)"/>
</clipPath>
</defs>
</svg>
