<svg width="29" height="43" viewBox="0 0 29 43" fill="none" xmlns="http://www.w3.org/2000/svg">
<path d="M25.2111 20.8499C24.9551 20.6451 24.6479 20.4744 24.3748 20.2867C24.1871 20.0648 23.9482 19.9112 23.658 19.8088C21.8318 18.7677 19.7667 18.1533 17.7187 18.1533C17.292 18.1533 16.8994 18.3239 16.5922 18.6141L14.51 20.7133L12.4108 18.6312C12.1206 18.3239 11.711 18.1703 11.2843 18.1703C9.21921 18.1703 7.11996 18.8018 5.29377 19.86C5.03776 19.9453 4.83296 20.0989 4.66228 20.2867C4.37214 20.4744 4.06494 20.6451 3.79186 20.8499C1.65847 22.5225 0.0200195 24.9631 0.0200195 27.8133V32.6433C0.0200195 37.9682 4.35508 42.2862 9.68003 42.2862H19.34C24.665 42.2862 29 37.9682 29 32.6433V27.8133C28.983 24.9631 27.3445 22.5225 25.2111 20.8499ZM18.2307 21.5496C19.084 21.6179 19.9886 21.7886 20.859 22.1129L19.0158 25.202L16.797 22.9833L18.2307 21.5496ZM12.2401 22.9833L10.0214 25.202L8.17812 22.1129C9.04854 21.8056 9.9531 21.6179 10.8065 21.5496L12.2401 22.9833ZM25.7744 32.6433C25.7744 36.2274 22.9241 39.0605 19.34 39.0605H9.68003C6.07886 39.0605 3.24571 36.2274 3.24571 32.6433V27.8133C3.24571 26.3455 4.082 24.9289 5.41324 23.7513L8.31466 28.6325C8.84374 29.5371 10.0896 29.6907 10.8406 28.9568L14.51 25.2532L18.1965 28.9397C18.9475 29.6736 20.1763 29.52 20.7225 28.6154L23.6239 23.7342C24.9551 24.9119 25.7914 26.3284 25.7914 27.7962V32.6433H25.7744Z" fill="#40189D"/>
<path d="M14.5099 14.9446C18.4866 14.9446 21.7635 11.6848 21.7635 7.70817C21.7635 3.73152 18.5036 0.471695 14.5099 0.471695C10.5333 0.471695 7.27344 3.73152 7.27344 7.70817C7.27344 11.6848 10.5162 14.9446 14.5099 14.9446ZM14.5099 3.68032C16.7457 3.68032 18.5378 5.47237 18.5378 7.70817C18.5378 9.94397 16.7457 11.736 14.5099 11.736C12.2741 11.736 10.4991 9.94397 10.4991 7.70817C10.4991 5.47237 12.257 3.68032 14.5099 3.68032Z" fill="#40189D"/>
<path d="M20.9442 31.0219H19.3399C17.1894 31.0219 17.1894 34.2476 19.3399 34.2476H20.9442C23.0776 34.2476 23.0776 31.0219 20.9442 31.0219Z" fill="#40189D"/>
</svg>
