<svg width="63" height="64" viewBox="0 0 63 64" fill="none" xmlns="http://www.w3.org/2000/svg">
<path d="M27.315 54.9103H35.7075V59.0897H27.315V54.9103ZM17.055 46.5289H45.945C45.7566 47.3488 45.3876 48.1164 44.865 48.776C44.2445 49.4606 43.4704 49.9887 42.606 50.3168C41.7416 50.6449 40.8117 50.7637 39.8925 50.6634H23.1075C22.1918 50.7618 21.2657 50.6421 20.4053 50.314C19.5448 49.9859 18.7745 49.4588 18.1575 48.776C17.6275 48.118 17.2508 47.3504 17.055 46.5289ZM10.5075 36.0354C9.95253 36.0354 9.4203 36.2556 9.02788 36.6475C8.63546 37.0394 8.415 37.5709 8.415 38.1251C8.415 38.6794 8.63546 39.2109 9.02788 39.6028C9.4203 39.9947 9.95253 40.2149 10.5075 40.2149H21.015C21.57 40.2149 22.1022 39.9947 22.4946 39.6028C22.887 39.2109 23.1075 38.6794 23.1075 38.1251C23.1075 37.5709 22.887 37.0394 22.4946 36.6475C22.1022 36.2556 21.57 36.0354 21.015 36.0354H10.5075ZM31.5 33.7884H33.525L35.775 34.0356V35.8781H31.5V33.7884ZM10.5075 28.6877C10.213 28.6573 9.91529 28.6889 9.63376 28.7806C9.35224 28.8723 9.09314 29.0221 8.87323 29.2201C8.65332 29.4182 8.47751 29.6601 8.35717 29.9303C8.23683 30.2005 8.17464 30.493 8.17464 30.7887C8.17464 31.0844 8.23683 31.3768 8.35717 31.647C8.47751 31.9173 8.65332 32.1592 8.87323 32.3573C9.09314 32.5553 9.35224 32.705 9.63376 32.7967C9.91529 32.8884 10.213 32.9201 10.5075 32.8896H16.8075C17.102 32.9201 17.3997 32.8884 17.6812 32.7967C17.9628 32.705 18.2219 32.5553 18.4418 32.3573C18.6617 32.1592 18.8375 31.9173 18.9578 31.647C19.0782 31.3768 19.1404 31.0844 19.1404 30.7887C19.1404 30.493 19.0782 30.2005 18.9578 29.9303C18.8375 29.6601 18.6617 29.4182 18.4418 29.2201C18.2219 29.0221 17.9628 28.8723 17.6812 28.7806C17.3997 28.6889 17.102 28.6573 16.8075 28.6877H10.5075ZM50.4 23.4747V31.3617L33.9525 29.5865H29.4525V25.3172H33.9525L50.4 23.4747ZM10.5075 21.3625C10.2327 21.3625 9.96061 21.4166 9.70674 21.5216C9.45286 21.6266 9.22219 21.7805 9.02788 21.9746C8.83357 22.1686 8.67944 22.399 8.57428 22.6525C8.46912 22.9061 8.415 23.1778 8.415 23.4522C8.415 23.7266 8.46912 23.9984 8.57428 24.2519C8.67944 24.5055 8.83357 24.7358 9.02788 24.9299C9.22219 25.1239 9.45286 25.2778 9.70674 25.3829C9.96061 25.4879 10.2327 25.5419 10.5075 25.5419H18.9225C19.1973 25.5419 19.4694 25.4879 19.7233 25.3829C19.9771 25.2778 20.2078 25.1239 20.4021 24.9299C20.5964 24.7358 20.7506 24.5055 20.8557 24.2519C20.9609 23.9984 21.015 23.7266 21.015 23.4522C21.015 23.1778 20.9609 22.9061 20.8557 22.6525C20.7506 22.399 20.5964 22.1686 20.4021 21.9746C20.2078 21.7805 19.9771 21.6266 19.7233 21.5216C19.4694 21.4166 19.1973 21.3625 18.9225 21.3625H10.5075ZM50.1975 19.2728L33.525 21.1378H29.4075C28.2973 21.1436 27.2339 21.5851 26.4467 22.367C25.6596 23.1489 25.2118 24.2085 25.2 25.3172V29.5865C25.2043 30.3161 25.3996 31.0318 25.7667 31.6625C26.1338 32.2932 26.6599 32.817 27.2925 33.1817V35.8781C27.3216 36.9772 27.7763 38.0221 28.561 38.7932C29.3457 39.5643 30.3992 40.0014 31.5 40.0126H35.7075C36.8177 40.0009 37.8787 39.5537 38.6616 38.7676C39.4446 37.9815 39.8867 36.9195 39.8925 35.8107V34.4401L50.1975 35.586C50.7603 35.6489 51.33 35.5932 51.8698 35.4226C52.4097 35.2519 52.9077 34.9701 53.3318 34.5953C53.7559 34.2205 54.0965 33.7611 54.3317 33.2467C54.567 32.7323 54.6916 32.1743 54.6975 31.6088V23.25C54.6916 22.6845 54.567 22.1265 54.3317 21.6121C54.0965 21.0977 53.7559 20.6383 53.3318 20.2635C52.9077 19.8887 52.4097 19.6069 51.8698 19.4363C51.33 19.2656 50.7603 19.2099 50.1975 19.2728ZM8.3925 10.869H12.6V12.9587C12.3055 12.9282 12.0078 12.9599 11.7263 13.0516C11.4447 13.1433 11.1856 13.293 10.9657 13.4911C10.7458 13.6891 10.57 13.9311 10.4497 14.2013C10.3293 14.4715 10.2671 14.7639 10.2671 15.0597C10.2671 15.3554 10.3293 15.6478 10.4497 15.918C10.57 16.1882 10.7458 16.4302 10.9657 16.6282C11.1856 16.8263 11.4447 16.976 11.7263 17.0677C12.0078 17.1594 12.3055 17.1911 12.6 17.1606H16.8075C17.102 17.1911 17.3997 17.1594 17.6812 17.0677C17.9628 16.976 18.2219 16.8263 18.4418 16.6282C18.6617 16.4302 18.8375 16.1882 18.9578 15.918C19.0782 15.6478 19.1404 15.3554 19.1404 15.0597C19.1404 14.7639 19.0782 14.4715 18.9578 14.2013C18.8375 13.9311 18.6617 13.6891 18.4418 13.4911C18.2219 13.293 17.9628 13.1433 17.6812 13.0516C17.3997 12.9599 17.102 12.9282 16.8075 12.9587V10.869H46.215V12.9587C45.9205 12.9282 45.6228 12.9599 45.3413 13.0516C45.0597 13.1433 44.8006 13.293 44.5807 13.4911C44.3608 13.6891 44.185 13.9311 44.0647 14.2013C43.9443 14.4715 43.8821 14.7639 43.8821 15.0597C43.8821 15.3554 43.9443 15.6478 44.0647 15.918C44.185 16.1882 44.3608 16.4302 44.5807 16.6282C44.8006 16.8263 45.0597 16.976 45.3413 17.0677C45.6228 17.1594 45.9205 17.1911 46.215 17.1606H50.4225C50.717 17.1911 51.0147 17.1594 51.2962 17.0677C51.5778 16.976 51.8369 16.8263 52.0568 16.6282C52.2767 16.4302 52.4525 16.1882 52.5728 15.918C52.6932 15.6478 52.7554 15.3554 52.7554 15.0597C52.7554 14.7639 52.6932 14.4715 52.5728 14.2013C52.4525 13.9311 52.2767 13.6891 52.0568 13.4911C51.8369 13.293 51.5778 13.1433 51.2962 13.0516C51.0147 12.9599 50.717 12.9282 50.4225 12.9587V10.869H54.6075C55.1607 10.8629 55.7095 10.9676 56.2214 11.1769C56.7334 11.3862 57.1982 11.6959 57.5883 12.0876C57.9784 12.4793 58.286 12.9451 58.4928 13.4575C58.6997 13.9699 58.8016 14.5185 58.7925 15.0709V38.1476C58.7985 38.6981 58.6944 39.2443 58.4862 39.7541C58.278 40.2639 57.97 40.727 57.5802 41.1163C57.1903 41.5056 56.7266 41.8133 56.2161 42.0212C55.7057 42.2291 55.1588 42.3331 54.6075 42.327H8.3925C7.84124 42.3331 7.29434 42.2291 6.78387 42.0212C6.2734 41.8133 5.80965 41.5056 5.41983 41.1163C5.03001 40.727 4.72197 40.2639 4.51379 39.7541C4.30561 39.2443 4.20147 38.6981 4.2075 38.1476V15.0709C4.19845 14.5185 4.30034 13.9699 4.50717 13.4575C4.714 12.9451 5.02156 12.4793 5.41169 12.0876C5.80181 11.6959 6.26659 11.3862 6.77857 11.1769C7.29054 10.9676 7.83933 10.8629 8.3925 10.869ZM44.1 4.57738H46.215V6.68957H44.1V4.57738ZM10.5075 4.57738H12.6V6.68957H10.5075V4.57738ZM10.5075 0.375488C9.39523 0.387182 8.33183 0.833635 7.54529 1.61912C6.75876 2.40461 6.31171 3.4666 6.3 4.57738V6.98168C4.50366 7.44749 2.9119 8.49329 1.77248 9.95631C0.633062 11.4193 0.0099041 13.2175 0 15.0709V38.1476C0.0118204 40.3668 0.899823 42.4918 2.47117 44.0611C4.04251 45.6303 6.17032 46.5171 8.3925 46.5289H12.78C13.055 48.3739 13.8335 50.1075 15.03 51.5398C16.0579 52.6688 17.3233 53.5566 18.7354 54.1393C20.1476 54.7221 21.6714 54.9854 23.1975 54.9103V59.0897H21.105C20.5846 59.1435 20.1026 59.3881 19.7522 59.7761C19.4018 60.1642 19.2079 60.6681 19.2079 61.1906C19.2079 61.7132 19.4018 62.2171 19.7522 62.6052C20.1026 62.9932 20.5846 63.2378 21.105 63.2916H42.0975C42.6179 63.2378 43.0999 62.9932 43.4503 62.6052C43.8007 62.2171 43.9946 61.7132 43.9946 61.1906C43.9946 60.6681 43.8007 60.1642 43.4503 59.7761C43.0999 59.3881 42.6179 59.1435 42.0975 59.0897H39.9825V54.9103C41.5116 54.9825 43.0379 54.718 44.4532 54.1355C45.8685 53.553 47.1383 52.6669 48.1725 51.5398C49.369 50.1075 50.1475 48.3739 50.4225 46.5289H54.7875C56.9783 46.4706 59.0604 45.5633 60.5931 43.999C62.1259 42.4347 62.9891 40.3362 63 38.1476V15.0709C62.9941 12.8499 62.1079 10.7215 60.5353 9.15095C58.9627 7.58043 56.8315 6.6955 54.6075 6.68957H50.4225V4.57738C50.4108 3.4666 49.9637 2.40461 49.1772 1.61912C48.3907 0.833635 47.3273 0.387182 46.215 0.375488H44.1C42.9877 0.387182 41.9243 0.833635 41.1378 1.61912C40.3513 2.40461 39.9042 3.4666 39.8925 4.57738V6.68957H16.8075V4.57738C16.7958 3.4666 16.3487 2.40461 15.5622 1.61912C14.7757 0.833635 13.7123 0.387182 12.6 0.375488H10.5075Z" fill="#FF7E6F"/>
</svg>
