<svg width="61" height="64" viewBox="0 0 61 64" fill="none" xmlns="http://www.w3.org/2000/svg">
<path d="M8.42778 52.8206H10.4108L12.6642 53.0902V59.0897H10.546C10.2681 59.0957 9.99176 59.046 9.73351 58.9434C9.47526 58.8408 9.24034 58.6875 9.04272 58.4925C8.8451 58.2975 8.68883 58.0649 8.58318 57.8085C8.47754 57.5521 8.42469 57.2772 8.42778 57V52.8206ZM35.7167 50.7084C35.2427 50.713 34.7843 50.8776 34.4163 51.1755C34.0483 51.4733 33.7924 51.8868 33.6904 52.3483C33.5884 52.8099 33.6464 53.2923 33.8548 53.7168C34.0632 54.1413 34.4097 54.4828 34.8378 54.6856L39.0292 56.7753C39.2763 56.8992 39.5454 56.9734 39.8213 56.9936C40.0971 57.0138 40.3743 56.9797 40.6369 56.8931C40.8995 56.8065 41.1424 56.6692 41.3518 56.4889C41.5612 56.3087 41.7329 56.0892 41.8572 55.8428C41.9815 55.5964 42.0559 55.328 42.0762 55.0529C42.0964 54.7779 42.0622 54.5015 41.9753 54.2397C41.8885 53.9778 41.7508 53.7356 41.5701 53.5268C41.3893 53.318 41.1691 53.1467 40.9221 53.0228L36.7082 50.9331C36.3991 50.7838 36.06 50.707 35.7167 50.7084ZM35.7167 42.9337C35.1954 42.9876 34.7127 43.2321 34.3618 43.6202C34.0109 44.0082 33.8166 44.5122 33.8166 45.0347C33.8166 45.5572 34.0109 46.0612 34.3618 46.4492C34.7127 46.8373 35.1954 47.0818 35.7167 47.1356H39.9756C40.4968 47.0818 40.9796 46.8373 41.3305 46.4492C41.6814 46.0612 41.8756 45.5572 41.8756 45.0347C41.8756 44.5122 41.6814 44.0082 41.3305 43.6202C40.9796 43.2321 40.4968 42.9876 39.9756 42.9337H35.7167ZM4.16882 42.327H8.42778V48.6187H4.21389L4.16882 42.327ZM25.2157 40.4845V50.4387L12.5966 48.8658V42.1248L25.2157 40.4845ZM39.9531 33.9233C39.6173 33.9252 39.2863 34.002 38.9841 34.148L34.8378 36.3275C34.5907 36.45 34.3702 36.6198 34.189 36.8272C34.0077 37.0347 33.8691 37.2757 33.7812 37.5365C33.6934 37.7973 33.6578 38.0728 33.6767 38.3473C33.6956 38.6218 33.7686 38.8899 33.8914 39.1363C34.0142 39.3827 34.1845 39.6026 34.3925 39.7833C34.6005 39.9641 34.8422 40.1023 35.1038 40.1899C35.3653 40.2775 35.6416 40.3129 35.9169 40.2941C36.1922 40.2752 36.4611 40.2025 36.7082 40.08L40.9221 37.9903C41.4315 37.839 41.8643 37.5002 42.1327 37.0427C42.4011 36.5851 42.4851 36.0429 42.3676 35.5259C42.2502 35.0089 41.9401 34.5558 41.5002 34.2582C41.0602 33.9606 40.5233 33.8409 39.9982 33.9233H39.9531ZM21.2723 27.6541H12.4839C12.2087 27.6644 11.9382 27.7287 11.688 27.8433C11.4377 27.9578 11.2124 28.1204 11.0252 28.3218C10.8379 28.5231 10.6922 28.7593 10.5965 29.0168C10.5007 29.2743 10.4568 29.548 10.4671 29.8225C10.4775 30.0969 10.5419 30.3666 10.6568 30.6162C10.7717 30.8658 10.9348 31.0903 11.1367 31.2771C11.3386 31.4638 11.5755 31.6091 11.8337 31.7046C12.0919 31.8 12.3665 31.8439 12.6417 31.8335H21.0469C21.3221 31.8483 21.5975 31.8089 21.8575 31.7175C22.1174 31.6261 22.3567 31.4845 22.5618 31.3009C22.7668 31.1173 22.9336 30.8952 23.0526 30.6473C23.1716 30.3994 23.2405 30.1306 23.2553 29.8562C23.2701 29.5818 23.2305 29.3071 23.1389 29.0479C23.0472 28.7887 22.9053 28.5501 22.7211 28.3456C22.537 28.1411 22.3143 27.9748 22.0657 27.8562C21.8171 27.7375 21.5475 27.6689 21.2723 27.6541ZM34.2294 23.5421L35.7392 26.0138L34.6576 27.6541H31.3676L34.2294 23.5421ZM12.6417 21.2951C12.0859 21.2951 11.5528 21.5153 11.1598 21.9072C10.7668 22.2991 10.546 22.8306 10.546 23.3848C10.546 23.939 10.7668 24.4706 11.1598 24.8625C11.5528 25.2544 12.0859 25.4745 12.6417 25.4745H16.833C17.3888 25.4745 17.9219 25.2544 18.3149 24.8625C18.7079 24.4706 18.9287 23.939 18.9287 23.3848C18.9287 22.8306 18.7079 22.2991 18.3149 21.9072C17.9219 21.5153 17.3888 21.2951 16.833 21.2951H12.6417ZM44.1895 20.8682L48.6963 27.6092H39.6827L44.1895 20.8682ZM44.1895 14.981C43.8474 14.9965 43.5133 15.0895 43.2126 15.2531C42.912 15.4166 42.6527 15.6463 42.4544 15.9248L38.3081 22.1714L36.0547 18.6212C35.8704 18.3207 35.6122 18.0722 35.3046 17.8992C34.997 17.7261 34.6502 17.6343 34.297 17.6325C33.9518 17.6226 33.6098 17.6998 33.3025 17.8569C32.9952 18.0141 32.7327 18.246 32.5393 18.5313C30.2859 21.8568 27.8748 25.2723 25.6214 28.5754C25.4088 28.8896 25.286 29.2555 25.266 29.634C25.2461 30.0124 25.3297 30.3892 25.5079 30.7239C25.6862 31.0586 25.9524 31.3387 26.278 31.5342C26.6036 31.7296 26.9764 31.8331 27.3565 31.8335H52.5948C53.0545 31.8725 53.5143 31.7591 53.9028 31.5109C54.2913 31.2627 54.5868 30.8936 54.7434 30.4608C54.9001 30.028 54.9091 29.5558 54.7692 29.1174C54.6292 28.679 54.3481 28.2989 53.9693 28.0361L45.9472 16.1045C45.7568 15.7993 45.4957 15.5442 45.186 15.3604C44.8762 15.1766 44.5268 15.0697 44.167 15.0484L44.1895 14.981ZM48.2006 6.62216C47.6448 6.64898 47.1224 6.89486 46.7484 7.30572C46.3744 7.71658 46.1794 8.25876 46.2063 8.81299C46.2332 9.36721 46.4798 9.88809 46.8918 10.261C47.3039 10.634 47.8476 10.8284 48.4034 10.8016H52.5948C53.1506 10.8016 53.6836 10.5814 54.0766 10.1895C54.4696 9.79763 54.6904 9.2661 54.6904 8.71187C54.6904 8.15765 54.4696 7.62612 54.0766 7.23422C53.6836 6.84232 53.1506 6.62216 52.5948 6.62216H48.2006ZM39.7953 6.62216C39.2395 6.64898 38.7172 6.89486 38.3432 7.30572C37.9692 7.71658 37.7742 8.25876 37.8011 8.81299C37.828 9.36721 38.0746 9.88809 38.4866 10.261C38.8986 10.634 39.4423 10.8284 39.9982 10.8016H42.1164C42.6722 10.8016 43.2052 10.5814 43.5982 10.1895C43.9912 9.79763 44.212 9.2661 44.212 8.71187C44.212 8.15765 43.9912 7.62612 43.5982 7.23422C43.2052 6.84232 42.6722 6.62216 42.1164 6.62216H39.7953ZM31.3901 6.62216C30.8343 6.64898 30.3119 6.89486 29.9379 7.30572C29.5639 7.71658 29.3689 8.25876 29.3958 8.81299C29.4227 9.36721 29.6693 9.88809 30.0813 10.261C30.4934 10.634 31.0371 10.8284 31.5929 10.8016H33.6886C34.2444 10.8016 34.7774 10.5814 35.1705 10.1895C35.5635 9.79763 35.7843 9.2661 35.7843 8.71187C35.7843 8.15765 35.5635 7.62612 35.1705 7.23422C34.7774 6.84232 34.2444 6.62216 33.6886 6.62216H31.3901ZM12.4839 6.68957C11.9281 6.71639 11.4058 6.96227 11.0318 7.37313C10.6578 7.78399 10.4628 8.32617 10.4897 8.8804C10.5166 9.43462 10.7631 9.9555 11.1752 10.3284C11.5872 10.7014 12.1309 10.8958 12.6867 10.869H14.7373C15.2932 10.869 15.8262 10.6488 16.2192 10.2569C16.6122 9.86504 16.833 9.33351 16.833 8.77928C16.833 8.22506 16.6122 7.69353 16.2192 7.30163C15.8262 6.90973 15.2932 6.68957 14.7373 6.68957H12.4839ZM12.6867 4.57738H52.5948C53.1479 4.57141 53.6967 4.67527 54.2092 4.88292C54.7217 5.09056 55.1876 5.39783 55.5798 5.78682C55.972 6.17581 56.2826 6.63874 56.4936 7.14865C56.7046 7.65855 56.8117 8.20522 56.8086 8.75681V54.9103C56.8117 55.4619 56.7046 56.0085 56.4936 56.5184C56.2826 57.0283 55.972 57.4913 55.5798 57.8803C55.1876 58.2693 54.7217 58.5765 54.2092 58.7842C53.6967 58.9918 53.1479 59.0957 52.5948 59.0897H16.833V53.607L25.0129 54.6406C25.5722 54.7102 26.14 54.6614 26.6791 54.4974C27.2182 54.3335 27.7166 54.0581 28.1419 53.6892C28.5671 53.3203 28.9096 52.8662 29.147 52.3565C29.3844 51.8467 29.5114 51.2928 29.5198 50.7308V48.012L31.007 46.5289C31.206 46.3363 31.3642 46.1057 31.4722 45.851C31.5802 45.5963 31.6359 45.3225 31.6359 45.0459C31.6359 44.7693 31.5802 44.4956 31.4722 44.2409C31.3642 43.9861 31.206 43.7556 31.007 43.5629L29.5198 42.1023V40.2149C29.515 39.6518 29.3903 39.0961 29.1541 38.5847C28.9178 38.0732 28.5753 37.6176 28.1493 37.248C27.7233 36.8784 27.2234 36.6032 26.6827 36.4406C26.142 36.2781 25.5729 36.2319 25.0129 36.3051L10.4108 38.1476H8.42778V8.75681C8.42476 8.20522 8.53186 7.65855 8.74283 7.14865C8.95381 6.63874 9.26445 6.17581 9.65665 5.78682C10.0488 5.39783 10.5148 5.09056 11.0272 4.88292C11.5397 4.67527 12.0885 4.57141 12.6417 4.57738H12.6867ZM12.6417 0.375488C10.4122 0.381385 8.2754 1.2656 6.69681 2.83548C5.11823 4.40537 4.22577 6.53371 4.21389 8.75681V38.1476C3.10199 38.1535 2.03697 38.595 1.24862 39.3769C0.460277 40.1588 0.0118135 41.2184 0 42.327V48.6187C0.0117268 49.7294 0.459454 50.7914 1.24718 51.5769C2.03491 52.3624 3.09993 52.8089 4.21389 52.8206V57C4.22575 58.6689 4.8974 60.2657 6.08298 61.4437C7.26855 62.6217 8.87232 63.2857 10.546 63.2916H52.5948C54.8221 63.2857 56.9566 62.4007 58.5316 60.8302C60.1066 59.2597 60.994 57.1313 61 54.9103V8.75681C60.994 6.53577 60.1066 4.40739 58.5316 2.83687C56.9566 1.26635 54.8221 0.381419 52.5948 0.375488H12.6417Z" fill="#6F75FF"/>
</svg>
